<svg width="400" height="400" viewBox="0 0 400 400" xmlns="http://www.w3.org/2000/svg">
<rect width="400" height="400" fill="#FFFFFF"/>
<circle cx="200" cy="200" r="180" fill="#6B4226"/>
<circle cx="200" cy="200" r="160" fill="#F2E3CE"/>

<path d="M130 260 Q165 285 200 288 Q235 285 270 260" fill="none" stroke="#7A8C4A" stroke-width="14" stroke-linecap="round"/>

<path d="M165 145 L165 220 Q165 240 188 240 L212 240 Q235 240 235 220 L235 145 Z" fill="#A9744A"/>
<path d="M235 160 Q265 160 265 185 Q265 210 235 205" fill="none" stroke="#A9744A" stroke-width="14"/>

<path d="M165 145 Q175 128 188 142 Q198 125 212 142 Q222 125 235 145 Z" fill="#C98A4B"/>
</svg>
